<?xml version="1.0" standalone="no"?>
<!DOCTYPE svg PUBLIC "-//W3C//DTD SVG 20010904//EN"
 "http://www.w3.org/TR/2001/REC-SVG-20010904/DTD/svg10.dtd">
<svg version="1.0" xmlns="http://www.w3.org/2000/svg"
 width="1062.000000pt" height="2038.000000pt" viewBox="0 0 1062.000000 2038.000000"
 preserveAspectRatio="xMidYMid meet">
<g transform="translate(0.000000,2038.000000) scale(0.100000,-0.100000)"
fill="#000000" stroke="none">
<path d="M7415 20359 c-1080 -71 -1959 -387 -2690 -968 -160 -127 -436 -404
-569 -571 -492 -617 -800 -1363 -930 -2250 -62 -417 -59 -344 -63 -2067 l-4
-1583 -1574 0 -1575 0 0 -1810 0 -1810 1575 0 1575 0 0 -4650 0 -4650 1875 0
1875 0 0 4650 0 4650 1558 0 1557 0 229 1773 c126 974 231 1789 234 1810 l5
37 -1793 0 -1792 0 5 1298 c4 1091 7 1318 20 1428 67 557 246 883 602 1096
171 103 426 182 700 218 183 24 470 30 1403 30 l982 0 0 1624 0 1623 -102 12
c-420 47 -1179 91 -1888 111 -406 11 -1038 11 -1215 -1z"/>
</g>
</svg>
