<?xml version="1.0" standalone="no"?>
<!DOCTYPE svg PUBLIC "-//W3C//DTD SVG 20010904//EN"
 "http://www.w3.org/TR/2001/REC-SVG-20010904/DTD/svg10.dtd">
<svg version="1.0" xmlns="http://www.w3.org/2000/svg"
 width="3091.000000pt" height="3085.000000pt" viewBox="0 0 3091.000000 3085.000000"
 preserveAspectRatio="xMidYMid meet">

<g transform="translate(0.000000,3085.000000) scale(0.100000,-0.100000)"
fill="#000000" stroke="none">
<path d="M11390 30840 c-3472 -66 -4937 -282 -6406 -945 -543 -245 -997 -499
-1364 -761 -331 -236 -567 -440 -941 -814 -963 -962 -1438 -1669 -1854 -2765
-600 -1576 -762 -3018 -816 -7225 -13 -1063 -6 -5693 10 -6455 50 -2382 117
-3587 247 -4490 108 -756 395 -1722 730 -2461 687 -1518 1717 -2668 3174
-3546 1437 -866 2880 -1197 5760 -1323 982 -43 1966 -55 4420 -55 3400 0 6199
40 7660 110 973 47 1898 192 2695 424 603 175 1146 391 1797 717 719 360 961
548 1848 1445 815 823 1055 1151 1472 2014 772 1597 908 2476 1033 6670 48
1632 58 2553 52 4750 -5 1762 -10 2148 -37 3270 -49 2017 -134 3513 -236 4174
-39 256 -145 713 -249 1076 -656 2291 -1953 3941 -3905 4970 -290 153 -714
350 -1025 477 -1268 519 -2456 652 -6365 713 -366 6 -1029 15 -1475 21 -1031
13 -5650 20 -6225 9z m8105 -2739 c1610 -25 2322 -47 2740 -87 1563 -148 2626
-493 3528 -1145 400 -289 856 -736 1149 -1124 301 -400 532 -842 703 -1347
243 -712 389 -1563 474 -2758 44 -614 64 -1185 92 -2615 16 -853 23 -4928 10
-6080 -27 -2354 -62 -3319 -157 -4365 -112 -1237 -295 -1939 -735 -2810 -788
-1565 -2207 -2488 -4389 -2854 -293 -49 -399 -61 -695 -76 -1309 -66 -4653
-110 -8295 -110 -2963 0 -3793 14 -4715 81 -1954 140 -2898 403 -3935 1094
-344 230 -562 408 -825 677 -229 232 -381 420 -548 674 -538 818 -857 1860
-1021 3334 -87 776 -111 1497 -125 3710 -25 3922 60 9050 174 10485 20 243 35
342 91 594 271 1226 576 1890 1195 2596 137 157 462 485 614 620 904 807 1843
1180 3445 1369 604 72 956 91 2080 116 436 9 1871 28 2565 34 834 6 5961 -4
6580 -13z"/>
<path d="M23475 25538 c-254 -28 -536 -126 -763 -264 -414 -251 -728 -679
-845 -1149 -46 -183 -52 -240 -52 -475 0 -235 6 -292 52 -475 134 -539 513
-1001 1016 -1240 1083 -514 2358 94 2643 1260 172 705 -72 1456 -620 1913
-400 333 -917 488 -1431 430z"/>
<path d="M15040 23294 c-565 -39 -1004 -105 -1485 -225 -2466 -615 -4512
-2410 -5450 -4784 -557 -1411 -692 -2981 -384 -4475 250 -1212 795 -2368 1573
-3335 337 -420 814 -897 1231 -1232 629 -505 1371 -933 2110 -1215 752 -288
1471 -447 2305 -510 213 -16 847 -16 1060 0 1775 135 3347 789 4680 1950 174
151 565 540 711 707 545 622 979 1293 1304 2021 882 1968 911 4232 81 6227
-665 1596 -1854 2950 -3355 3819 -1005 582 -2068 918 -3271 1034 -156 15 -962
28 -1110 18z m720 -2734 c1356 -85 2554 -640 3477 -1612 1051 -1108 1552
-2648 1362 -4190 -171 -1389 -896 -2644 -2014 -3483 -460 -345 -924 -588
-1470 -770 -433 -144 -836 -223 -1300 -256 -213 -15 -686 -6 -885 15 -1059
117 -1987 510 -2801 1186 -148 124 -492 465 -608 605 -289 348 -500 671 -691
1060 -277 562 -433 1106 -506 1755 -22 190 -30 678 -15 881 66 907 346 1747
827 2482 392 599 888 1095 1491 1491 919 603 2044 903 3133 836z"/>
</g>
</svg>
