<?xml version="1.0" standalone="no"?>
<!DOCTYPE svg PUBLIC "-//W3C//DTD SVG 20010904//EN"
 "http://www.w3.org/TR/2001/REC-SVG-20010904/DTD/svg10.dtd">
<svg version="1.0" xmlns="http://www.w3.org/2000/svg"
 width="2000.000000pt" height="2000.000000pt" viewBox="0 0 2000.000000 2000.000000"
 preserveAspectRatio="xMidYMid meet">

<g transform="translate(0.000000,2000.000000) scale(0.100000,-0.100000)"
fill="#000000" stroke="none">
<path d="M1245 19984 c-635 -114 -1126 -591 -1230 -1198 -13 -79 -15 -1037
-15 -8786 0 -7749 2 -8707 15 -8786 76 -441 368 -833 774 -1043 134 -68 224
-102 371 -139 l105 -27 8720 -3 c8610 -2 8721 -2 8835 17 526 90 969 453 1155
947 l25 66 0 8929 0 8928 -31 85 c-143 397 -481 750 -870 910 -112 46 -241 83
-354 101 -135 22 -17378 21 -17500 -1z m3346 -2774 c779 -76 1400 -648 1546
-1423 27 -145 25 -447 -5 -595 -120 -598 -550 -1076 -1137 -1265 -202 -65
-313 -82 -545 -82 -269 0 -414 28 -642 121 -470 191 -837 583 -994 1061 -64
196 -79 293 -79 528 0 179 4 226 23 317 66 313 208 586 425 815 350 369 900
573 1408 523z m9311 -4451 c1503 -103 2415 -765 2843 -2064 168 -509 262
-1118 295 -1915 6 -150 10 -1323 10 -3037 l0 -2793 -1465 0 -1465 0 0 2408 c0
1324 -5 2549 -10 2722 -16 533 -57 834 -156 1135 -169 512 -499 817 -994 919
-286 58 -713 44 -1000 -35 -660 -180 -1032 -700 -1145 -1599 -38 -311 -38
-309 -42 -2932 l-4 -2568 -1494 0 -1495 0 0 4750 0 4750 1415 0 1415 0 0 -640
0 -640 33 0 c30 0 35 5 67 68 114 223 345 503 581 706 516 443 1173 706 1924
769 98 9 548 6 687 -4z m-8022 -5034 l0 -4775 -1465 0 -1465 0 0 4775 0 4775
1465 0 1465 0 0 -4775z"/>
</g>
</svg>
