<?xml version="1.0" standalone="no"?>
<!DOCTYPE svg PUBLIC "-//W3C//DTD SVG 20010904//EN"
 "http://www.w3.org/TR/2001/REC-SVG-20010904/DTD/svg10.dtd">
<svg version="1.0" xmlns="http://www.w3.org/2000/svg"
 width="1201.000000pt" height="1232.000000pt" viewBox="0 0 1201.000000 1232.000000"
 preserveAspectRatio="xMidYMid meet">

<g transform="translate(0.000000,1232.000000) scale(0.100000,-0.100000)"
fill="#000000" stroke="none">
<path d="M5640 12304 c-287 -20 -606 -63 -865 -115 -1005 -202 -1946 -656
-2735 -1319 -174 -146 -566 -538 -704 -705 -789 -951 -1233 -2043 -1317 -3240
-24 -343 -2 -840 52 -1188 119 -773 407 -1515 847 -2187 267 -409 627 -828
980 -1143 l112 -100 0 -1154 c0 -634 2 -1153 5 -1153 3 0 501 248 1108 552
l1103 551 205 -56 c461 -128 836 -196 1249 -228 196 -15 708 -6 920 16 1032
105 1954 429 2800 983 346 226 621 452 941 771 482 483 812 941 1104 1536 302
614 469 1206 547 1940 17 161 17 829 0 990 -22 209 -52 415 -83 570 -184 931
-593 1778 -1225 2540 -144 173 -544 572 -724 722 -872 723 -1886 1180 -3000
1353 -314 49 -488 62 -885 65 -209 1 -405 1 -435 -1z m622 -1004 c1158 -61
2187 -458 3058 -1180 246 -204 564 -540 766 -810 836 -1116 1120 -2530 779
-3875 -372 -1463 -1463 -2677 -2932 -3259 -413 -163 -892 -281 -1343 -331
-718 -78 -1413 -8 -2125 215 -88 27 -205 64 -260 81 l-101 31 -542 -271 c-298
-149 -544 -271 -547 -271 -3 0 -5 253 -5 563 l-1 562 -141 115 c-637 517
-1044 1009 -1367 1650 -413 821 -566 1715 -451 2619 100 779 401 1519 880
2166 273 369 681 769 1063 1043 939 673 2107 1013 3269 952z"/>
<path d="M3945 6555 c-825 -873 -1501 -1590 -1503 -1595 -2 -5 601 326 1339
736 738 410 1345 746 1349 747 3 1 330 -346 725 -771 l718 -772 52 57 c29 32
699 758 1488 1613 789 855 1434 1557 1432 1559 -2 2 -594 -329 -1316 -734
l-1312 -738 -736 742 -736 742 -1500 -1586z"/>
</g>
</svg>
