<?xml version="1.0" standalone="no"?>
<!DOCTYPE svg PUBLIC "-//W3C//DTD SVG 20010904//EN"
 "http://www.w3.org/TR/2001/REC-SVG-20010904/DTD/svg10.dtd">
<svg version="1.0" xmlns="http://www.w3.org/2000/svg"
 width="924.000000pt" height="980.000000pt" viewBox="0 0 924.000000 980.000000"
 preserveAspectRatio="xMidYMid meet">

<g transform="translate(0.000000,980.000000) scale(0.100000,-0.100000)"
fill="#000000" stroke="none">
<path d="M1403 9785 c-23 -7 -62 -24 -85 -38 -24 -14 -192 -176 -375 -359
l-332 -333 1110 -1205 c611 -663 1118 -1213 1129 -1224 18 -18 19 -18 51 20
45 54 230 235 454 445 132 122 199 192 217 226 53 99 60 224 17 337 -18 50
-121 168 -923 1059 l-902 1002 -70 32 c-111 52 -208 64 -291 38z"/>
<path d="M315 8805 c-96 -149 -191 -394 -243 -625 -260 -1149 207 -2611 1326
-4160 645 -893 1519 -1833 2327 -2505 1052 -874 2025 -1360 2985 -1491 156
-22 562 -25 695 -6 327 46 610 142 779 263 l57 41 -33 39 c-18 21 -512 560
-1098 1198 l-1065 1158 -27 -19 c-248 -175 -550 -60 -1118 427 -724 620 -1369
1265 -1854 1855 -309 375 -522 763 -557 1016 -20 140 16 282 93 370 16 18 28
38 26 43 -1 4 -496 543 -1099 1197 -602 654 -1109 1205 -1126 1224 l-31 34
-37 -59z"/>
<path d="M7073 3649 c-111 -18 -127 -32 -492 -394 l-344 -342 1097 -1194 c604
-657 1100 -1193 1102 -1192 3 1 175 170 382 375 426 422 417 411 417 558 -1
122 -20 153 -257 406 -112 120 -511 550 -887 954 -376 404 -700 747 -719 762
-72 57 -196 84 -299 67z"/>
</g>
</svg>
