<?xml version="1.0" standalone="no"?>
<!DOCTYPE svg PUBLIC "-//W3C//DTD SVG 20010904//EN"
 "http://www.w3.org/TR/2001/REC-SVG-20010904/DTD/svg10.dtd">
<svg version="1.0" xmlns="http://www.w3.org/2000/svg"
 width="2561.000000pt" height="1298.000000pt" viewBox="0 0 2561.000000 1298.000000"
 preserveAspectRatio="xMidYMid meet">

<g transform="translate(0.000000,1298.000000) scale(0.100000,-0.100000)"
fill="#000000" stroke="none">
<path d="M11890 12959 c-1984 -78 -3817 -364 -5490 -855 -609 -179 -1305 -426
-1800 -639 -47 -20 -110 -47 -140 -60 -148 -62 -520 -239 -735 -349 -1481
-757 -2549 -1662 -3170 -2686 -237 -391 -418 -860 -494 -1280 -70 -389 -70
-822 0 -1210 219 -1210 1112 -2367 2574 -3335 1431 -947 3334 -1675 5510
-2106 1204 -239 2419 -378 3755 -430 351 -13 1821 -6 2095 10 99 6 295 18 435
26 1481 90 3135 358 4430 717 506 140 962 284 1350 425 69 25 150 54 180 65
122 43 589 232 785 318 1559 680 2793 1561 3553 2536 106 136 314 445 390 580
131 231 266 539 335 764 115 371 157 648 157 1035 0 313 -23 514 -90 794 -219
904 -820 1786 -1746 2559 -648 540 -1454 1037 -2354 1450 -176 80 -244 110
-460 203 -567 242 -1432 537 -2115 719 -1643 440 -3265 676 -5150 750 -287 11
-1514 11 -1805 -1z m864 -1686 c-18 -93 -98 -508 -179 -923 -80 -415 -147
-759 -149 -765 -2 -7 220 -9 658 -7 951 4 1279 -12 1632 -83 686 -137 1033
-430 1141 -963 25 -120 25 -519 0 -671 -16 -96 -92 -495 -312 -1626 -46 -236
-144 -739 -217 -1117 l-133 -688 -766 0 -766 0 59 302 c327 1674 543 2793 559
2888 21 130 26 347 8 432 -28 132 -107 237 -225 296 -195 97 -391 114 -1269
110 l-589 -3 -113 -580 c-61 -319 -157 -812 -212 -1095 -55 -283 -181 -928
-278 -1432 l-178 -918 -754 0 -753 0 6 33 c4 17 63 322 132 677 69 355 175
899 235 1210 61 311 209 1074 330 1695 121 622 291 1499 379 1950 87 451 184
951 215 1110 31 160 59 300 62 313 l5 22 753 0 752 0 -33 -167z m-4699 -1703
c792 -40 1347 -259 1718 -678 265 -299 403 -654 438 -1127 31 -409 -67 -994
-235 -1413 -163 -405 -384 -731 -717 -1058 -522 -511 -1047 -747 -1846 -829
-247 -25 -605 -35 -1309 -35 l-671 0 -42 -212 c-24 -117 -103 -526 -177 -908
-74 -382 -136 -705 -139 -717 l-5 -23 -760 0 -760 0 5 23 c15 68 39 190 186
945 88 455 193 998 234 1207 41 209 148 763 239 1230 91 468 197 1012 235
1210 39 198 159 818 268 1378 l197 1017 1481 0 c814 0 1561 -5 1660 -10z
m11940 0 c506 -26 912 -123 1231 -296 234 -127 484 -350 617 -550 214 -321
310 -669 310 -1119 -1 -210 -11 -336 -49 -560 -119 -712 -410 -1271 -920
-1765 -451 -438 -907 -668 -1537 -775 -355 -60 -670 -75 -1603 -75 l-672 0 -5
-22 c-3 -13 -56 -282 -117 -598 -131 -676 -216 -1114 -231 -1187 l-10 -53
-760 0 c-719 0 -760 1 -755 18 3 9 28 134 55 277 58 298 133 687 372 1915 94
481 244 1255 334 1720 90 465 189 971 219 1125 213 1091 376 1936 376 1945 0
13 2888 13 3145 0z"/>
<path d="M6215 8458 c-3 -12 -59 -302 -125 -643 -66 -341 -156 -802 -200
-1025 -135 -688 -240 -1235 -240 -1248 0 -15 1046 -17 1236 -2 469 38 810 144
1065 331 346 255 592 781 664 1420 34 305 6 550 -85 729 -99 196 -305 330
-616 399 -226 50 -278 53 -1006 58 l-687 5 -6 -24z"/>
<path d="M18156 8463 c-5 -18 -79 -396 -352 -1803 -74 -382 -152 -786 -174
-897 -22 -111 -40 -209 -40 -217 0 -14 57 -16 554 -16 304 0 611 5 682 10 371
30 639 96 875 216 431 219 698 652 823 1334 65 353 58 635 -18 846 -118 324
-440 492 -1021 534 -77 5 -406 10 -732 10 -555 0 -592 -1 -597 -17z"/>
</g>
</svg>
