<?xml version="1.0" standalone="no"?>
<!DOCTYPE svg PUBLIC "-//W3C//DTD SVG 20010904//EN"
 "http://www.w3.org/TR/2001/REC-SVG-20010904/DTD/svg10.dtd">
<svg version="1.0" xmlns="http://www.w3.org/2000/svg"
 width="980.000000pt" height="980.000000pt" viewBox="0 0 980.000000 980.000000"
 preserveAspectRatio="xMidYMid meet">

<g transform="translate(0.000000,980.000000) scale(0.100000,-0.100000)"
fill="#000000" stroke="none">
<path d="M2350 9790 c-482 -50 -928 -224 -1315 -513 -143 -106 -406 -369 -512
-512 -272 -365 -438 -772 -505 -1240 -19 -135 -16 -521 5 -670 52 -359 184
-720 371 -1018 l67 -107 -20 -128 c-43 -262 -54 -444 -48 -787 6 -340 19 -486
73 -765 147 -777 497 -1504 1012 -2105 110 -128 349 -367 477 -477 591 -506
1293 -847 2051 -997 515 -102 1100 -111 1626 -25 l97 16 98 -62 c122 -77 365
-197 498 -246 136 -49 372 -108 530 -130 190 -28 539 -25 730 4 575 89 1079
348 1475 758 392 405 625 874 712 1429 29 186 31 548 5 730 -53 359 -184 720
-371 1017 l-66 107 24 173 c37 254 46 384 46 664 0 515 -71 958 -230 1434
-298 892 -865 1667 -1628 2223 -536 390 -1171 662 -1832 781 -492 89 -1045 93
-1552 10 l-97 -16 -107 67 c-296 186 -639 313 -987 366 -151 23 -490 33 -627
19z m514 -585 c353 -46 686 -189 988 -423 l77 -59 113 23 c796 167 1585 104
2314 -186 883 -352 1626 -1032 2058 -1883 410 -807 524 -1698 336 -2615 l-27
-133 62 -82 c224 -298 345 -563 406 -892 26 -139 37 -439 20 -581 -93 -790
-622 -1443 -1371 -1694 -211 -71 -400 -100 -640 -100 -462 1 -873 144 -1252
438 l-77 59 -113 -23 c-913 -189 -1780 -84 -2593 312 -668 325 -1255 865
-1646 1514 -95 157 -218 406 -282 570 -288 735 -350 1494 -187 2288 l27 133
-64 84 c-102 137 -170 246 -238 387 -136 283 -195 544 -195 865 0 410 112 782
338 1119 322 479 835 801 1402 879 133 18 405 18 544 0z"/>
<path d="M4575 7734 c-332 -22 -689 -98 -955 -204 -748 -298 -1123 -855 -1070
-1592 49 -685 404 -1090 1178 -1345 139 -45 282 -82 1112 -287 649 -160 756
-197 872 -304 70 -65 104 -132 118 -233 39 -284 -176 -501 -580 -586 -131 -28
-468 -25 -607 5 -208 45 -377 120 -538 240 -49 37 -184 159 -300 272 -270 264
-353 324 -510 365 -66 17 -207 20 -281 6 -291 -55 -464 -285 -464 -614 0 -134
17 -210 74 -332 213 -452 864 -818 1696 -954 982 -160 1874 25 2451 507 277
232 451 527 531 894 30 141 33 468 5 598 -115 538 -502 899 -1235 1154 -193
67 -372 114 -862 227 -694 160 -777 183 -921 253 -105 51 -171 112 -211 194
-31 62 -33 74 -33 167 0 93 2 105 33 167 97 197 371 298 810 298 252 0 419
-33 597 -119 117 -56 205 -118 329 -227 250 -221 314 -266 441 -310 69 -23 96
-27 195 -27 97 0 128 4 196 27 100 32 183 85 252 161 67 73 105 139 139 240
23 70 27 96 27 215 1 122 -2 142 -26 208 -169 463 -855 813 -1798 917 -140 15
-542 27 -665 19z"/>
</g>
</svg>
