<?xml version="1.0" standalone="no"?>
<!DOCTYPE svg PUBLIC "-//W3C//DTD SVG 20010904//EN"
 "http://www.w3.org/TR/2001/REC-SVG-20010904/DTD/svg10.dtd">
<svg version="1.0" xmlns="http://www.w3.org/2000/svg"
 width="980.000000pt" height="878.000000pt" viewBox="0 0 980.000000 878.000000"
 preserveAspectRatio="xMidYMid meet">

<g transform="translate(0.000000,878.000000) scale(0.100000,-0.100000)"
fill="#000000" stroke="none">
<path d="M9290 8751 c-40 -13 -6829 -2713 -8887 -3534 -228 -91 -277 -120
-334 -204 -40 -58 -69 -149 -69 -217 0 -147 93 -292 224 -351 28 -13 578 -225
1221 -470 644 -246 1171 -449 1173 -450 1 -1 153 -573 337 -1271 220 -836 343
-1287 361 -1322 95 -185 329 -263 514 -170 25 13 344 238 709 501 365 263 669
476 676 473 7 -2 561 -377 1231 -832 671 -455 1246 -841 1278 -858 55 -29 66
-31 165 -31 97 0 111 2 166 29 76 38 149 111 182 182 20 44 186 895 795 4087
851 4459 789 4104 730 4230 -41 87 -100 150 -180 189 -83 41 -204 49 -292 19z
m-1715 -1596 c-1066 -1019 -3966 -3820 -3987 -3850 -15 -22 -35 -66 -44 -97
-10 -32 -19 -56 -21 -54 -2 2 -51 181 -108 399 -57 217 -114 415 -126 438 -29
58 -109 141 -161 166 -35 18 -1207 469 -1560 601 -54 20 -98 39 -98 43 0 3
307 128 682 277 376 150 1779 708 3118 1241 1339 534 2437 970 2440 970 3 0
-58 -60 -135 -134z m640 -2981 c-321 -1688 -588 -3081 -592 -3097 -8 -27 -11
-25 -1088 706 -594 403 -1280 868 -1525 1034 -245 166 -453 308 -464 316 -20
15 -278 -236 2743 2670 827 796 1506 1446 1507 1444 2 -2 -259 -1385 -581
-3073z m-4112 -1679 c229 -154 416 -282 416 -285 0 -12 -623 -450 -629 -443
-4 4 -69 244 -144 533 -75 289 -139 532 -142 541 -2 9 15 -3 39 -25 24 -23
231 -167 460 -321z"/>
</g>
</svg>
