<?xml version="1.0" standalone="no"?>
<!DOCTYPE svg PUBLIC "-//W3C//DTD SVG 20010904//EN"
 "http://www.w3.org/TR/2001/REC-SVG-20010904/DTD/svg10.dtd">
<svg version="1.0" xmlns="http://www.w3.org/2000/svg"
 width="982.000000pt" height="806.000000pt" viewBox="0 0 982.000000 806.000000"
 preserveAspectRatio="xMidYMid meet">

<g transform="translate(0.000000,806.000000) scale(0.100000,-0.100000)"
fill="#000000" stroke="none">
<path d="M6450 8035 c-249 -32 -465 -98 -685 -207 -562 -280 -967 -779 -1124
-1388 -48 -184 -63 -312 -64 -531 l-1 -195 -136 18 c-591 78 -1123 241 -1660
509 -393 197 -705 401 -1050 688 -144 119 -495 470 -615 614 -132 158 -214
190 -333 131 -61 -30 -90 -71 -168 -230 -110 -227 -183 -502 -205 -776 -34
-414 72 -868 285 -1229 36 -60 63 -109 61 -109 -1 0 -22 9 -46 20 -83 37 -184
18 -251 -47 -63 -61 -72 -100 -65 -276 21 -575 303 -1149 748 -1522 l89 -75
-37 -15 c-78 -33 -132 -112 -133 -192 0 -22 15 -85 34 -140 103 -294 270 -557
501 -788 231 -232 495 -400 794 -505 l103 -37 -67 -37 c-384 -211 -862 -359
-1350 -416 -154 -19 -544 -23 -710 -7 -178 16 -216 10 -275 -41 -80 -68 -101
-163 -56 -257 13 -27 32 -58 42 -67 48 -42 360 -220 574 -327 623 -310 1222
-483 1970 -568 219 -25 901 -25 1140 0 1211 127 2207 541 3090 1285 165 140
488 463 630 632 886 1052 1376 2386 1380 3760 l0 125 112 90 c144 116 408 378
530 525 121 145 265 343 289 395 60 129 -35 289 -179 303 -41 3 -70 -5 -204
-57 -86 -34 -159 -61 -161 -61 -3 0 20 37 50 83 72 108 180 327 222 450 27 78
33 109 29 152 -9 106 -89 183 -200 192 -60 5 -67 3 -148 -41 -243 -132 -375
-194 -570 -267 -121 -46 -400 -129 -434 -129 -12 0 -33 12 -47 26 -13 15 -60
54 -104 89 -302 236 -617 374 -1000 441 -126 22 -460 27 -595 9z m421 -426
c220 -22 403 -75 604 -175 158 -78 288 -169 415 -290 119 -114 145 -129 230
-127 78 1 330 63 542 134 81 27 150 49 153 49 12 0 -104 -121 -184 -193 -42
-38 -128 -103 -191 -146 -138 -94 -165 -131 -164 -226 0 -92 42 -159 124 -200
28 -15 51 -17 130 -12 78 5 313 42 395 63 41 10 -188 -194 -401 -357 -101 -77
-104 -88 -104 -402 0 -145 -5 -324 -10 -398 -127 -1651 -987 -3148 -2320
-4036 -720 -479 -1552 -759 -2485 -835 -221 -18 -683 -15 -895 6 -517 50 -995
162 -1438 337 -168 66 -166 65 -86 73 482 49 1071 244 1520 502 218 124 494
318 537 377 61 82 62 181 1 264 -46 61 -80 73 -246 89 -243 23 -432 72 -613
158 -290 137 -538 354 -707 616 -26 41 -48 78 -48 81 0 3 64 9 143 12 140 7
338 39 437 72 124 41 187 192 127 305 -38 72 -77 95 -222 134 -153 40 -257 80
-375 142 -328 174 -587 444 -744 774 -52 112 -117 295 -131 374 -6 35 -5 38
12 31 45 -18 251 -65 349 -80 60 -9 152 -17 204 -18 80 -1 101 2 135 20 115
61 155 179 99 291 -21 41 -42 64 -109 112 -330 238 -567 582 -664 965 -74 293
-67 619 20 910 12 41 25 75 30 75 4 0 29 -25 56 -57 59 -69 327 -322 460 -433
761 -638 1668 -1065 2643 -1245 206 -38 482 -72 666 -81 113 -6 125 -5 169 16
53 26 100 83 116 144 9 34 7 63 -12 171 -34 183 -34 467 -1 633 74 372 248
682 527 943 343 320 838 486 1306 438z"/>
</g>
</svg>
