<?xml version="1.0" standalone="no"?>
<!DOCTYPE svg PUBLIC "-//W3C//DTD SVG 20010904//EN"
 "http://www.w3.org/TR/2001/REC-SVG-20010904/DTD/svg10.dtd">
<svg version="1.0" xmlns="http://www.w3.org/2000/svg"
 width="1345.000000pt" height="1473.000000pt" viewBox="0 0 1345.000000 1473.000000"
 preserveAspectRatio="xMidYMid meet">

<g transform="translate(0.000000,1473.000000) scale(0.100000,-0.100000)"
fill="#000000" stroke="none">
<path d="M6080 14714 c-30 -2 -134 -8 -230 -14 -424 -27 -993 -99 -1420 -181
-2109 -404 -3467 -1417 -3981 -2969 -72 -219 -117 -403 -168 -685 -135 -749
-227 -1512 -261 -2170 -13 -243 -13 -949 0 -1170 40 -701 139 -1327 307 -1935
299 -1091 831 -1878 1618 -2393 202 -132 377 -209 845 -374 225 -79 363 -137
393 -167 16 -16 17 -82 17 -1095 0 -593 3 -1186 7 -1319 l6 -242 291 0 291 0
535 524 c635 621 1386 1377 1558 1568 l123 136 92 6 c51 3 281 10 512 16 537
14 1408 52 1830 80 1181 79 1953 251 2660 594 392 190 686 397 970 681 358
357 580 715 827 1330 375 934 530 1892 545 3356 6 564 -2 816 -37 1234 -75
882 -264 1802 -487 2365 -386 976 -1096 1680 -2158 2138 -795 343 -1855 560
-3275 668 -190 15 -1251 28 -1410 18z m1140 -655 c540 -25 1120 -91 1725 -194
686 -116 1260 -286 1724 -511 734 -354 1223 -816 1535 -1449 128 -260 194
-447 291 -830 147 -582 230 -1107 286 -1830 17 -218 23 -1117 10 -1402 -39
-820 -102 -1318 -236 -1863 -138 -555 -386 -1169 -613 -1515 -513 -782 -1429
-1244 -2817 -1419 -530 -67 -1474 -120 -2791 -156 -372 -10 -454 -19 -567 -65
-136 -54 -205 -112 -417 -350 -136 -152 -770 -789 -1218 -1223 l-281 -274 -3
884 c-3 810 -5 888 -21 943 -57 194 -169 333 -356 443 -78 45 -251 118 -516
217 -497 184 -534 200 -680 298 -637 426 -1046 1039 -1308 1963 -146 510 -237
1043 -289 1679 -18 217 -18 1187 0 1425 60 802 201 1806 323 2294 101 401 282
795 508 1106 653 899 1845 1488 3491 1725 790 113 1417 143 2220 104z"/>
<path d="M6810 12473 c-253 -25 -496 -69 -566 -104 -59 -28 -129 -108 -149
-170 -13 -38 -16 -74 -13 -133 4 -71 9 -91 39 -147 39 -70 105 -129 169 -148
55 -16 153 -13 260 9 200 41 349 53 615 47 334 -7 534 -40 825 -137 890 -296
1573 -1015 1825 -1920 69 -250 98 -463 98 -740 1 -222 -11 -352 -50 -555 -32
-166 -29 -241 14 -317 35 -63 107 -121 178 -145 63 -21 176 -20 234 1 118 43
176 134 215 341 145 762 37 1539 -310 2226 -537 1063 -1586 1779 -2769 1889
-101 9 -532 12 -615 3z"/>
<path d="M3685 11815 c-397 -104 -717 -316 -912 -605 -85 -125 -160 -318 -189
-480 -19 -110 -14 -320 10 -430 15 -67 237 -642 366 -945 142 -334 258 -560
473 -920 818 -1370 1907 -2478 3277 -3336 573 -358 1511 -826 1827 -910 112
-30 330 -37 444 -15 222 45 546 221 759 413 225 203 415 493 486 741 24 84 26
106 22 210 -5 132 -25 194 -95 299 -71 109 -171 195 -553 479 -749 558 -831
612 -1027 677 -248 82 -455 69 -643 -40 -86 -50 -231 -196 -307 -309 -183
-270 -424 -371 -682 -285 -112 38 -345 145 -496 228 -711 392 -1228 931 -1561
1628 -126 264 -171 459 -141 609 39 191 137 319 410 535 217 172 307 296 330
454 20 138 -18 258 -171 542 -262 487 -603 935 -979 1286 -100 94 -207 157
-309 184 -88 23 -231 19 -339 -10z"/>
<path d="M6845 11513 c-242 -31 -301 -49 -365 -113 -62 -62 -84 -121 -84 -225
-1 -76 3 -99 25 -145 35 -75 80 -124 142 -154 74 -37 126 -41 265 -21 179 26
481 17 644 -18 528 -115 965 -428 1234 -884 104 -176 173 -355 221 -573 32
-149 43 -441 22 -601 -22 -165 -19 -234 14 -301 84 -172 328 -231 492 -118 42
29 82 81 103 135 42 107 66 554 43 778 -80 744 -485 1410 -1116 1832 -325 218
-684 350 -1085 401 -104 13 -472 18 -555 7z"/>
<path d="M6894 10531 c-78 -37 -128 -95 -154 -179 -53 -170 13 -341 157 -404
47 -21 85 -28 201 -37 119 -9 161 -16 250 -46 313 -105 541 -348 627 -671 9
-32 21 -120 26 -194 14 -183 46 -256 140 -315 150 -96 364 -59 456 79 45 66
53 103 53 238 0 460 -235 927 -615 1222 -282 219 -613 336 -953 336 -119 0
-131 -2 -188 -29z"/>
</g>
</svg>
