<?xml version="1.0" standalone="no"?>
<!DOCTYPE svg PUBLIC "-//W3C//DTD SVG 20010904//EN"
 "http://www.w3.org/TR/2001/REC-SVG-20010904/DTD/svg10.dtd">
<svg version="1.0" xmlns="http://www.w3.org/2000/svg"
 width="1201.000000pt" height="1207.000000pt" viewBox="0 0 1201.000000 1207.000000"
 preserveAspectRatio="xMidYMid meet">

<g transform="translate(0.000000,1207.000000) scale(0.100000,-0.100000)"
fill="#000000" stroke="none">
<path d="M5685 12053 c-476 -38 -735 -78 -1117 -174 -915 -229 -1769 -683
-2498 -1326 -152 -135 -432 -418 -562 -570 -1093 -1273 -1596 -2902 -1412
-4573 57 -520 194 -1062 395 -1563 66 -165 227 -503 308 -647 28 -49 51 -96
51 -103 0 -7 -189 -703 -420 -1547 -231 -844 -419 -1537 -418 -1541 2 -3 710
180 1573 407 864 227 1576 413 1584 414 7 0 88 -38 180 -84 672 -340 1377
-540 2171 -618 180 -17 868 -18 1045 0 1256 124 2357 584 3320 1388 156 130
478 445 619 604 778 882 1284 1966 1445 3100 56 391 76 872 52 1240 -116 1773
-982 3365 -2411 4431 -913 680 -1985 1074 -3155 1159 -126 9 -650 11 -750 3z
m610 -1013 c920 -51 1770 -335 2515 -841 547 -371 1024 -856 1382 -1404 444
-679 700 -1415 784 -2255 21 -202 23 -665 5 -860 -97 -1060 -477 -1981 -1152
-2790 -131 -159 -438 -466 -594 -596 -338 -281 -663 -492 -1040 -675 -1309
-635 -2810 -662 -4160 -77 -132 57 -370 180 -541 279 l-171 99 -934 -244
c-513 -135 -935 -244 -936 -242 -3 2 470 1736 491 1801 4 15 -19 61 -91 175
-123 198 -238 407 -318 580 -573 1238 -615 2644 -118 3915 109 278 303 649
476 913 304 460 738 919 1182 1247 935 693 2075 1038 3220 975z"/>
<path d="M3850 8844 c-130 -26 -236 -88 -349 -206 -296 -309 -442 -606 -490
-998 -45 -355 30 -740 224 -1156 155 -333 506 -839 910 -1310 133 -156 479
-510 630 -644 424 -379 881 -687 1295 -875 349 -159 922 -363 1130 -404 318
-62 682 -48 922 35 384 134 748 421 838 662 59 156 110 416 110 562 0 99 -12
146 -47 182 -45 49 -1144 585 -1316 643 -91 30 -169 33 -213 6 -34 -21 -76
-69 -159 -181 -70 -94 -268 -337 -370 -454 -113 -129 -173 -150 -297 -102 -35
13 -139 58 -233 100 -736 332 -1319 845 -1770 1556 -167 264 -166 284 12 482
175 195 250 295 310 415 78 156 78 177 -12 389 -37 87 -153 365 -257 619 -201
487 -222 533 -275 594 -63 74 -90 81 -344 86 -123 2 -235 2 -249 -1z"/>
</g>
</svg>
