<?xml version="1.0" standalone="no"?>
<!DOCTYPE svg PUBLIC "-//W3C//DTD SVG 20010904//EN"
 "http://www.w3.org/TR/2001/REC-SVG-20010904/DTD/svg10.dtd">
<svg version="1.0" xmlns="http://www.w3.org/2000/svg"
 width="1401.000000pt" height="1101.000000pt" viewBox="0 0 1401.000000 1101.000000"
 preserveAspectRatio="xMidYMid meet">
<g transform="translate(0.000000,1101.000000) scale(0.100000,-0.100000)"
fill="#000000" stroke="none">
<path d="M6140 10994 c-347 -10 -1075 -47 -1450 -74 -883 -64 -2123 -203
-2685 -301 -758 -133 -1396 -690 -1640 -1433 -122 -369 -269 -1481 -325 -2451
-41 -726 -41 -1755 0 -2465 45 -767 145 -1626 256 -2194 158 -809 772 -1460
1566 -1661 308 -79 1688 -244 2658 -319 936 -73 1429 -91 2495 -91 1047 0
1453 14 2425 85 930 68 2377 240 2710 321 360 88 682 268 959 534 281 271 492
632 586 1003 63 249 164 938 220 1500 72 728 90 1135 90 2052 0 862 -14 1217
-71 1845 -54 600 -160 1366 -229 1660 -195 829 -866 1470 -1690 1614 -603 105
-1875 244 -2845 311 -748 51 -1072 62 -2015 64 -495 2 -952 1 -1015 0z m2210
-1028 c1130 -58 2035 -140 3045 -277 358 -48 485 -70 570 -96 341 -108 612
-377 729 -727 51 -154 149 -783 205 -1321 73 -697 101 -1258 101 -2045 0 -762
-24 -1282 -91 -1950 -51 -518 -148 -1180 -199 -1369 -104 -376 -397 -671 -780
-782 -140 -41 -1099 -165 -1800 -233 -1147 -112 -2047 -157 -3125 -157 -1204
0 -2303 63 -3550 202 -597 66 -1262 158 -1365 188 -313 90 -561 299 -705 595
-70 144 -86 206 -140 531 -155 938 -225 1868 -225 2980 0 800 29 1376 106
2095 52 486 146 1103 190 1242 73 231 217 437 403 579 83 63 262 152 361 179
142 39 1067 162 1690 225 807 81 1552 130 2385 159 50 2 495 2 990 0 651 -1
985 -6 1205 -18z"/>
<path d="M5010 5500 c0 -1375 2 -2500 5 -2500 10 0 4995 2495 4995 2500 0 5
-4985 2500 -4995 2500 -3 0 -5 -1125 -5 -2500z"/>
</g>
</svg>
